/* XPM */
static char *result[] = {
/* columns rows colors chars-per-pixel */
"64 64 204 2 ",
"   c black",
".  c #010101",
"X  c #020202",
"o  c gray1",
"O  c #040404",
"+  c gray2",
"@  c #060606",
"#  c #070707",
"$  c gray3",
"%  c #090909",
"&  c gray4",
"*  c #0B0B0B",
"=  c #0C0C0C",
"-  c gray5",
";  c #0E0E0E",
":  c gray6",
">  c #101010",
",  c #111111",
"<  c gray7",
"1  c #131313",
"2  c gray8",
"3  c #151515",
"4  c #161616",
"5  c gray9",
"6  c #181818",
"7  c #191919",
"8  c gray10",
"9  c #1B1B1B",
"0  c gray11",
"q  c #1D1D1D",
"w  c #1E1E1E",
"e  c gray12",
"r  c gray13",
"t  c #222222",
"y  c #232323",
"u  c #252525",
"i  c gray15",
"p  c #272727",
"a  c #282828",
"s  c gray16",
"d  c #2A2A2A",
"f  c gray17",
"g  c #2C2C2C",
"h  c #2D2D2D",
"j  c gray18",
"k  c #2F2F2F",
"l  c gray19",
"z  c #313131",
"x  c #323232",
"c  c #343434",
"v  c #353535",
"b  c gray21",
"n  c #373737",
"m  c #393939",
"M  c #3A3A3A",
"N  c gray23",
"B  c #3C3C3C",
"V  c gray24",
"C  c #3E3E3E",
"Z  c #3F3F3F",
"A  c gray25",
"S  c gray26",
"D  c #434343",
"F  c #444444",
"G  c gray27",
"H  c #464646",
"J  c #484848",
"K  c #494949",
"L  c gray29",
"P  c #4B4B4B",
"I  c #4C4C4C",
"U  c gray30",
"Y  c #4E4E4E",
"T  c gray31",
"R  c #505050",
"E  c #515151",
"W  c #535353",
"Q  c #555555",
"!  c #565656",
"~  c gray34",
"^  c #585858",
"/  c gray35",
"(  c #5A5A5A",
")  c #5B5B5B",
"_  c gray36",
"`  c #5D5D5D",
"'  c gray37",
"]  c #5F5F5F",
"[  c gray38",
"{  c #626262",
"}  c #646464",
"|  c #656565",
" . c gray40",
".. c #676767",
"X. c #686868",
"o. c DimGray",
"O. c #6A6A6A",
"+. c gray42",
"@. c #6C6C6C",
"#. c #6D6D6D",
"$. c gray43",
"%. c #6F6F6F",
"&. c gray44",
"*. c #717171",
"=. c #727272",
"-. c gray45",
";. c #747474",
":. c gray46",
">. c #767676",
",. c #777777",
"<. c gray47",
"1. c #797979",
"2. c gray48",
"3. c #7B7B7B",
"4. c #7C7C7C",
"5. c #7E7E7E",
"6. c gray50",
"7. c #808080",
"8. c #818181",
"9. c gray51",
"0. c #838383",
"q. c #848484",
"w. c gray52",
"e. c #868686",
"r. c gray53",
"t. c #898989",
"y. c gray54",
"u. c #8B8B8B",
"i. c gray55",
"p. c #8D8D8D",
"a. c #8E8E8E",
"s. c gray56",
"d. c #909090",
"f. c gray57",
"g. c #929292",
"h. c #939393",
"j. c gray58",
"k. c #959595",
"l. c gray59",
"z. c #979797",
"x. c #989898",
"c. c gray60",
"v. c #9A9A9A",
"b. c #9B9B9B",
"n. c gray61",
"m. c #9D9D9D",
"M. c gray62",
"N. c #9F9F9F",
"B. c #A0A0A0",
"V. c gray63",
"C. c #A2A2A2",
"Z. c gray64",
"A. c #A4A4A4",
"S. c #A5A5A5",
"D. c gray65",
"F. c #A7A7A7",
"G. c gray66",
"H. c #A9A9A9",
"J. c #AAAAAA",
"K. c gray67",
"L. c #ACACAC",
"P. c gray68",
"I. c #AEAEAE",
"U. c #AFAFAF",
"Y. c gray69",
"T. c #B1B1B1",
"R. c #B2B2B2",
"E. c gray70",
"W. c #B4B4B4",
"Q. c gray71",
"!. c #B6B6B6",
"~. c #B7B7B7",
"^. c gray72",
"/. c #B9B9B9",
"(. c gray73",
"). c #BBBBBB",
"_. c #BCBCBC",
"`. c gray74",
"'. c gray",
"]. c gray75",
"[. c #C0C0C0",
"{. c #C1C1C1",
"}. c gray76",
"|. c #C3C3C3",
" X c gray77",
".X c #C5C5C5",
"XX c #C6C6C6",
"oX c gray78",
"OX c #C8C8C8",
"+X c gray79",
"@X c #CACACA",
"#X c #CBCBCB",
"$X c gray80",
"%X c #CDCDCD",
"&X c #CECECE",
"*X c gray81",
"=X c #D0D0D0",
"-X c gray82",
";X c #D2D2D2",
":X c LightGray",
">X c gray83",
",X c #D5D5D5",
"<X c gray84",
"1X c #D7D7D7",
/* pixels */
"                                #                                                               o                               ",
"%                                                           O < #                                                               ",
"7   2 v O.O.z.M.XX>XoXM.&.      r 0.o.O.' v v a                 @   | L.E       t ).N.h.@.} b b     k b b b b b L +.O.+.+.+.D   ",
",   X.:X:X:X:X:X;X;X-X=X*XY   { @X;X;X:X*X=X%X%X&X:X-X=X;X;X@X  X   v >X1X{.+.2   } ,X<X,X>X>X>X>X>X>X>X>X>X>X>X:X:X-X-X-X-X;.  ",
";   r.XXXX.X.X.XoXXXXX.X.X'.N.XX X X}..XXXoXoX+X+X+XOX+X+X+X$X      @ -X*X=X&XoX6.p V.&X*X*X*X;X=X-X=X-X-X-X-X:X-X-X:X:X:X:XO.  ",
"-   g.XX.X.XXXXX.XOXOX+X@X+XoXoX+X+X+X+X+XOXoXoXOXOXOXOX+X+X(.  o #   `.@X+XOXOXXXXXW.OXoXOXoXOXOX+X+X+X+XoXoXXXXX.X.X#X$X&X..  ",
"<   a.`._.).`.`._._.).`.`.).].].].[.].[.[.{.{.|.|. X XD.a. .T   6   1 oXoXoXXXoXXXXX X|.|.}.{.{.}.}.[.{.{.}.}.}.}.}.{.[.].[.S   ",
"4   w.(._._._.).(._._.`.).~.~.~./.)././.s.q._ W l 6             r   d (.).)._._._._._._.'.'.`.'.'._.`.'.'.'.`.'.].`.{.].[.'.s   ",
"6   e.E.W.!.Q.Q.Q.!.Q.W.T.R.R.Y.Y.Y.U.x.9.0.%.^ ^ V g g ,       u   U `._.)._._._._.'.`.(.(./.^././.~././.^././.(.^.^.!.W.~.=   ",
"0   2.L.P.P.P.P.I.I.U.I.I.Y.T.K.L.L.I.I.P.Y.T.R.E.R.Y.T.R.R.4   r   / E.Y.U.U.U.U.Y.Y.U.P.I.Y.U.U.U.L.L.P.P.P.P.P.P.P.I.I.T.+   ",
"7   { R.E.Y.T.Y.T.Y.Y.Y.U.P.L.P.U.U.K.L.H.H.L.P.K.J.P.L.J.D.v   0   Q K.K.P.I.I.U.L.L.P.P.P.I.P.I.Y.R.R.U.I.L.L.P.L.J.G.F.G.g   ",
"<   D D.D.D.D.D.D.D.D.D.F.F.G.G.H.H.G.F.F.G.G.G.H.D.D.G.F.F.'   <   E Z.F.S.D.H.G.n.H.G.G.J.J.J.K.K.J.J.H.L.L.J.H.F.F.G.F.G.'   ",
"@   j A.A.A.A.A.S.A.A.A.A.A.Z.C.C.B.V.V.V.V.Z.Z.V.Z.Z.C.Z.A.0.  #   ' S.F.S.C.Z.! ^ S.N.m.N.M.M.Z.N.S.S.V.V.V.V.V.B.N.V.B.N.8.  ",
"    i c.m.n.b.c.b.n.b.b.b.v.v.x.b.b.v.v.b.v.b.D.v.n.V.D.F.B.h.  O   | N.B.B.3.t   r.b.n.b.v.m.b.b.n.m.B.B.N.B.B.B.A.m.N.B.Z.B.  ",
"    a B.B.M.M.n.b.n.n.n.n.c.b.b.v.b.b.b.b.b.b.v.b.n.n.c.V.C.u.  X   &.n.k.P     y B.C.C.C.Z.C.B.B.B.N.B.V.N.N.V.B.B.B.B.N.C.C.  ",
"    p b.x.h.-.-.o.I I I I I I I U U U U U W :.-.) I U C i i r       7 p 1       p Y U Y Y U U Y Y Y Y Y A p p p p K U [ :.5.x.  ",
"    $                                                                     o                                                     ",
"            . @ # = = #                   . - 5 < = = - -                                       -                               ",
"v v r                               T { j     %                   # v v ' O.:.n.m.t.o.o.O.D -   6   r r           v v v v v v v ",
"*X-X-X-X-X-X_.m.M.n.b.H.;X;X|.  .   b.-X-Xl.r     *.M.N.D.<X,X,X>X>X>X<X1X<X<X<X<X,X>X>X>X>Xc   6   8.;XV.T #     j ).-X;X-X*X=X",
"-X-X=X=X=X=X&X*X&X&X&X&X*X*Xn.  O   k.+X+XOX}.+./ @X#X@X@XOX+XOX@X+XOXOXOXOX@XOXOX#X#X#X&X;XJ   8   8.*X&X%X[.4.2   - d.;X;X-X-X",
"}.}.|.|.{.{.{.}.|.|.|. X|.|.-.  $   s.|.{. X X|. X}.}.{.[.[.[.}. X X}.}.}.}.|.}.}.|.|.}.XXXXL   w   2.|.}.{.{.{.E.J     Y /.}.|.",
"].`.'.].[.}.|.}.}.{.[.}.|.|.[   :   p.'.].].`._.).)._.[.}.}.}.}..X X}.}.}.}.}.}. X}.}.{.}.{.V   e   1.}.[.|. X|.|.|.6.=   u Z.[.",
"`.'.`.`.'.'.].'._._._.'.'.'.H   1   i.[.{.]._._.^.)._.).(.(./.~.~.`./././././././.(.).)._.`.k   w   -././.'.^./.^.^.).G.v   @ >.",
"Z J.W.!.!.Q.!.!.!.!.!.!./.(.k   3   y.^./.^.).].]./././.^.~.^.!.~.^.^.~.~.~.^.^.~.E.W.Q.Q.!.a   1   y./.Y.W.W.W.W.~.~.!.~...@   ",
"  6.Q.!.^.~.(.^.^.~.~.'.Q.W.Z   >   9.Q.E.T.~.~.R.R.~.Q.Q.Y.Y.Y.T.W.W.Q.T.I.U.Y.Y.Y.Y.P.P.K.4   w   =.I.I.P.P.P.~.~.U.U.Y.Y.h.p ",
"$.F.F.F.G.F.G.H.F.F.F.F.P.P.E   3   R J.L.K.W.W.W.I.L.J.L.J.H.J.J.H.K.K.H.J.J.H.F.H.K.K.K.K.f   y   R H.G.G.P.G.F.G.F.F.G.G.F.C.",
"M.M.N.V.B.N.V.C.B.B.B.M.Z.A.{   6   0 K.K.K.P.I.I.I.U.T.Y.T.T.W.!.Q.Y.U.U.I.R.E.f.7.k.P.L.I.W   0   c V.B.V.B.V.V.B.F.N.B.B.B.B.",
"m.D.F.B.C.N.B.V.G.S.S.J.D.F.3.  < o   l.S.D.G.G.G.G.H.H.H.J.J.H.G.H.H.H.G.D.F.G.n.c     + d 9   1   6 N.N.M.M.m.m.m.N.B.M.M.m.m.",
"m.n.n.M.n.n.b.m.m.n.M.m.b.b.r.  = +   v.F.B.C.C.B.m.N.M.B.B.B.V.B.V.m.M.m.m.N.n.m.m.' +         >     n.n.n.M.m.m.m.m.M.m.M.m.m.",
"b.b.c.v.c.c.M.M.N.M.m.n.n.n.:.  5     v.c.b.b.c.c.c.v.v.v.v.c.c.c.x.c.c.v.Z.b.n.M.M.m.0.6     * s     B.M.M.m.m.m.c.c.b.b.b.b.b.",
"x.c.c.x.b.b.b.b.v.c.c.c.c.b.o.  8     i l I E -.:.j.-.-.U U f p & q i J I $.*.f.z.>.=./ J &     w     i i i i i f I I I #.=.*.p.",
"                                r                                                               ;                               ",
"                                          O & @ .                                                                               ",
"t     M.m.z.O.O.O.b b b b b 2                           ! O.f.  .       - v v v v v v b b v v v v v K o.o.t.m.m.n.n.n.n.n.n.J   ",
"N     :X:X>X>X>X:X>X>X:X>X,X:X,X,X,X,X,X>X'.M.*.    k L.>X,X>X      O.+X+X@X@X@X@X+X+X+X@X@X#X$X$X$X$X$X%X&X&X&X*X=X=X;X;X=XY   ",
"P     -X=X-X=X=X*X*X*X=X-X-X&X&X&X&X&X&X*X*X'.8 - +.@XOXOX#X$X1     x $X&X&X%X%X%X&X%X@X+X@XOXoXOXOXoXOX+XoXXXoX+X+XoXOX+X+Xm   ",
"P   = |. X XXXoXOXOX+XoXOX|.|.|.|.}.}. X X XL n R. X|.|. X XXX6       OXXXoXOXOXoXXXoXXXOXOXoXOXoXOXOX#X#X#X%X+XXXXXXXOXXXXXx   ",
"M   6 `.[.[.[.].'.].'.].].].].].'.'.[.|..Xu.i. X X.XoXoXXXoX.X1     , (.(.].[.].'.].].'.[.{.}..X X.X}.{.[.].].].[.}..XXXXXXXF   ",
"k   5 /.(.`./.(.)._.].(.(._._._.`.`.'.|.XX`.|.|.}.'.`._.)._.'.      v )._.).).)._._._.).)./.~.~.~.~.~.^.~.~.!.!.!.^./././.`.|   ",
"0   t W.Q.).!.!.Q.W.E.E.E.!.!.Q.!.!.!.Q.Q.Q.Q.!.!.~.!.Q.^.^.^.      P ^.^./././././././.(.(./.^.Q.W.W.Q.Q.!.!.Q.!.!.(.(.Q.).8.  ",
";   g U.Y.Y.U.I.L.L.P.J.J.G.G.H.J.H.K.P.P.R.R.E.W.W.W.~.Q.W.W.      ( !.!.!.!.!.Q.!.!.E.W.W.W.E.R.R.T.Y.W.U.Y.Y.T.T.T.R.T.E.b.  ",
">   f H.G.J.H.J.L.L.J.F.S.S.A.A.A.S.S.S.Z.Z.Z.A.D.F.G.G.G.H.D.      N I.P.K.P.L.P.P.J.K.L.G.G.F.L.G.K.K.K.G.K.P.U.I.U.W.I.P.p.  ",
",   h C.C.Z.Z.Z.A.S.A.A.S.S.S.S.S.D.D.G.S.A.S.S.S.F.F.F.F.D.k.  #   e Z.V.B.Z.C.Z.Z.Z.C.Z.Z.Z.D.A.A.A.S.S.A.F.S.A.A.C.H.J.J.1.  ",
",   B B.D.C.V.C.V.Z.V.M.N.B.N.N.N.N.C.V.C.C.C.C.H.H.G.D.D.D.g.  *   + m.n.n.n.M.M.M.m.m.M.N.B.N.N.N.B.C.C.A.A.D.F.S.S.S.A.A.%.  ",
"3   x m.m.v.v.v.v.c.b.v.M.m.n.n.n.m.M.M.N.N.N.N.N.D.D.A.M.M.y.  ; *   y.N.N.m.b.c.n.V.V.B.B.B.B.B.B.V.V.C.F.F.F.N.N.M.B.N.N.{   ",
"1   y M.M.M.N.M.M.M.m.M.M.m.M.N.M.M.M.N.V.n.n.b.b.v.c.v.v.b.u.  #     n.n.n.n.n.B.B.B.B.b.b.C.v.v.x.c.Z.c.x.x.c.v.v.x.x.b.B.%.  ",
">   + p a a i n T T U Q -.=.:.d.b.b.y.-.-.-.R P P I C p a i i         F I =.,.x.x.N.v.Z.M.Z.C.v.b.B.V.v.>.>.( U U U T R U p q   ",
"$                                                                               1 e 0 7 1 1 & & q %                             ",
"                                                                                                                                ",
"        8 c c v v D O.o.o.o.T   q :   i.V.B.B.V.C.@.@.' b b t                     t v K O.%.o.  6   2 B.B.N.M.O.o.+.+.b v v -   ",
"-X=X=X*X%X$X%X%X%X&X$X@X$X$XM.  2 >   R.$X$X$X#X$X$X$X$X$X$X%X%X%X*X*X*X*X&X&X&X%X&X&X%X%X&XG.  *   B =X;X-X;X;X;X;X-X;X;X:X;X;X",
"%X&X&X&X*X-X=X%X@X+X.XXXoX.XP.  : :   R.&X&X*X%X#XOXXXoX@X@X+X@X@X+X@X#X$X$X$X%X&X%X$X%X=X%XXX      ) *X%X%X@X#X@X+X+X@X+X#X%X$X",
"@X@X+X+X@X#X#X#X@X#X@X@X@X+XL.  * $   L.XX.X.XXXoXXX.XoXOXOXOXOX+X+X+X+X@X+X@X$X$X%X%X&X$XOXQ.  o   <.@X#X@X#X+X+X@X+X@X@XoX+X+X",
"oXoXXX|. X X|.|. X.X|.].{.{.F.  &   @ _.(./.!./.^.(._.`.)._.`.].].].'.].{.[.}.{.[.[.'.'.].{.y.  #   <.{.{.{.{.[.}.{..XXX X.X|.XX",
"`.`.`.`.`.).(._.`.`.`.'.`._.Z.  $   j '.'.'.`._.).).^.^.!.~.(.^.(./.^.~.~./.(./.~./.)./././.{   :   >.'.'.`.).(._.(.).`.'.'.'.`.",
"/./.^./.(.(.(./.).).`.).).).V.  @   ~ ^.!.~.(.~.~.!.~.^./.!.!.^.!.!.!.W.W.W.!./.).).(./.Q.Q.G   3   &.Q.W.!.!./././././.`.`.`._.",
"E.E.R.R.T.R.W.E./._.W.E.E.R.v.  +   *.W.W.Q.^.).).(.(.!.!.Q.W.R.W.R.W.W.W.E.E.E.E.Y.W._.)./.G   3   =.E.I.E.Q././.~.!.!.Q.W.E.R.",
"F.F.F.D.D.D.D.D.G.H.D.D.F.F.;.  *   o.K.U.I.!.Q.Q.^.~.~./.)./.^.^.E.R.L.I.G.P.K.L.U.Q./././.P   1   o.J.G.D.S.S.S.S.S.S.S.S.A.F.",
"P.I.I.L.L.L.L.K.K.G.S.Z.A.C.!   2   [ I.I.I.I.P.U.U.R.E.E.R.Y.U.I.P.P.L.H.G.G.H.F.H.J.G.H.K.!   1   ! H.D.G.H.H.H.H.H.H.G.H.K.P.",
"A.C.A.A.A.F.D.D.F.G.H.H.S.S.M   u   R V.N.N.N.M.V.C.N.M.C.Z.B.C.J.H.D.B.M.S.H.J.Z.Z.A.A.D.Z.E   3   R C.V.V.N.B.B.N.B.m.N.B.Z.Z.",
"A.A.A.C.C.S.A.Z.C.C.A.C.M.N.y   c   G M.N.M.N.m.m.M.m.m.m.n.m.n.m.M.M.M.B.N.N.N.B.N.N.N.N.M.L   5   Q N.B.N.M.N.B.B.V.B.S.S.D.A.",
"N.N.M.M.m.b.V.v.b.b.v.b.Z.V.S   z   V C.C.m.M.M.b.m.m.m.m.m.N.M.N.N.N.B.M.b.n.n.m.n.b.v.b.M.N   1   o.C.C.B.N.B.N.N.A.A.Z.C.Z.B.",
"-.-.d.v.v.v.v.v.c.c.b.b.n.n.`   y   1 I I I I I ~ O.U U I P f i i i U I U | -.;.-.-.-.] U U 1   =   2.m.v.c.v.b.c.b.c.b.v.:.-.-."
};
